# xmcd
#
# Track frame offsets:
#	150
#	13050
#	24322
#	35465
#	48072
#	59867
#	69607
#	81392
#	94372
#	105567
#	115735
#	124502
#	136502
#	147732
#	156510
#	166075
#	177805
#	189120
#	199710
#	212057
#	226087
#	237142
#
# Disc length: 3289 seconds
#
# Revision: 3
# Processed by: cddbd v1.4PL0 Copyright (c) Steve Scherf et al.
# Submitted via: EasyCDDAExtractor 5.0.6
#
DISCID=270cd716
DTITLE=Smokey Hogg - Angels In Harlem
DYEAR=1992
DGENRE=Blues
TTITLE0=I Want A Roller
TTITLE1=Nobody Treats Me Right
TTITLE2=Evil Mind Blues
TTITLE3=I'm Through With You
TTITLE4=What's On Your Mind
TTITLE5=You Better Watch That Jive
TTITLE6=Goin' Back To Texas
TTITLE7=I Want My Baby For Christmas
TTITLE8=Low Down Woman Blues
TTITLE9=Gonna Leave Town
TTITLE10=I Ain't Gonna Put You Down
TTITLE11=Every Mornin' At Sunrise
TTITLE12=If It Hadn't Been For You
TTITLE13=Boogie All Night Long
TTITLE14=Worryin' My Life Away
TTITLE15=Angels In Harlem
TTITLE16=Born On The 13th
TTITLE17=Crawdad
TTITLE18=Size 4 Shoe
TTITLE19=Little Fine Girl
TTITLE20=Good Mornin' Baby
TTITLE21=Sure 'Nuff
EXTD=
EXTT0=
EXTT1=
EXTT2=
EXTT3=
EXTT4=
EXTT5=
EXTT6=
EXTT7=
EXTT8=
EXTT9=
EXTT10=
EXTT11=
EXTT12=
EXTT13=
EXTT14=
EXTT15=
EXTT16=
EXTT17=
EXTT18=
EXTT19=
EXTT20=
EXTT21=
PLAYORDER=
